<svg width="32" height="32" viewBox="0 0 32 32" fill="none" xmlns="http://www.w3.org/2000/svg">
<path d="M12.884 22.6657H19.1147M16 3.99902V5.33236M24.4853 7.51369L23.5427 8.45636M28 15.999H26.6667M5.33333 15.999H4M8.45733 8.45636L7.51467 7.51369M11.2853 20.7137C10.3532 19.7813 9.7184 18.5934 9.4613 17.3002C9.20421 16.0071 9.33634 14.6667 9.84097 13.4486C10.3456 12.2306 11.2001 11.1895 12.2964 10.457C13.3927 9.72455 14.6815 9.3336 16 9.3336C17.3185 9.3336 18.6073 9.72455 19.7036 10.457C20.7999 11.1895 21.6544 12.2306 22.159 13.4486C22.6637 14.6667 22.7958 16.0071 22.5387 17.3002C22.2816 18.5934 21.6468 19.7813 20.7147 20.7137L19.984 21.443C19.5663 21.8608 19.2349 22.3568 19.0089 22.9027C18.7829 23.4485 18.6666 24.0336 18.6667 24.6244V25.3324C18.6667 26.0396 18.3857 26.7179 17.8856 27.218C17.3855 27.7181 16.7072 27.999 16 27.999C15.2928 27.999 14.6145 27.7181 14.1144 27.218C13.6143 26.7179 13.3333 26.0396 13.3333 25.3324V24.6244C13.3333 23.431 12.8587 22.2857 12.016 21.443L11.2853 20.7137Z" stroke="white" stroke-width="2.66667" stroke-linecap="round" stroke-linejoin="round"/>
</svg>
