<svg width="16" height="16" viewBox="0 0 16 16" fill="none" xmlns="http://www.w3.org/2000/svg">
<path d="M11.3333 13.3334H14.6666V12.0001C14.6666 11.5844 14.5371 11.1791 14.2961 10.8405C14.0551 10.5019 13.7145 10.2467 13.3218 10.1106C12.9291 9.97443 12.5037 9.964 12.1048 10.0808C11.7059 10.1975 11.3533 10.4357 11.096 10.7621M11.3333 13.3334H4.66665M11.3333 13.3334V12.0001C11.3333 11.5627 11.2493 11.1447 11.096 10.7621M11.096 10.7621C10.8484 10.1434 10.4211 9.61306 9.86931 9.2395C9.31747 8.86594 8.66637 8.66628 7.99998 8.66628C7.33359 8.66628 6.68249 8.86594 6.13065 9.2395C5.57881 9.61306 5.15155 10.1434 4.90398 10.7621M4.66665 13.3334H1.33331V12.0001C1.33334 11.5844 1.46287 11.1791 1.70389 10.8405C1.9449 10.5019 2.28544 10.2467 2.67815 10.1106C3.07086 9.97443 3.49623 9.964 3.89514 10.0808C4.29405 10.1975 4.64667 10.4357 4.90398 10.7621M4.66665 13.3334V12.0001C4.66665 11.5627 4.75065 11.1447 4.90398 10.7621M9.99998 4.66675C9.99998 5.19718 9.78927 5.70589 9.41419 6.08096C9.03912 6.45603 8.53041 6.66675 7.99998 6.66675C7.46955 6.66675 6.96084 6.45603 6.58577 6.08096C6.21069 5.70589 5.99998 5.19718 5.99998 4.66675C5.99998 4.13632 6.21069 3.62761 6.58577 3.25253C6.96084 2.87746 7.46955 2.66675 7.99998 2.66675C8.53041 2.66675 9.03912 2.87746 9.41419 3.25253C9.78927 3.62761 9.99998 4.13632 9.99998 4.66675ZM14 6.66675C14 7.02037 13.8595 7.35951 13.6095 7.60956C13.3594 7.85961 13.0203 8.00008 12.6666 8.00008C12.313 8.00008 11.9739 7.85961 11.7238 7.60956C11.4738 7.35951 11.3333 7.02037 11.3333 6.66675C11.3333 6.31313 11.4738 5.97399 11.7238 5.72394C11.9739 5.47389 12.313 5.33341 12.6666 5.33341C13.0203 5.33341 13.3594 5.47389 13.6095 5.72394C13.8595 5.97399 14 6.31313 14 6.66675ZM4.66665 6.66675C4.66665 7.02037 4.52617 7.35951 4.27612 7.60956C4.02607 7.85961 3.68694 8.00008 3.33331 8.00008C2.97969 8.00008 2.64055 7.85961 2.3905 7.60956C2.14046 7.35951 1.99998 7.02037 1.99998 6.66675C1.99998 6.31313 2.14046 5.97399 2.3905 5.72394C2.64055 5.47389 2.97969 5.33341 3.33331 5.33341C3.68694 5.33341 4.02607 5.47389 4.27612 5.72394C4.52617 5.97399 4.66665 6.31313 4.66665 6.66675Z" stroke="#6B7280" stroke-width="1.33333" stroke-linecap="round" stroke-linejoin="round"/>
</svg>
