<svg width="16" height="16" viewBox="0 0 16 16" fill="none" xmlns="http://www.w3.org/2000/svg">
<path d="M11.3333 13.3332H14.6666V11.9998C14.6666 11.5842 14.537 11.1789 14.296 10.8403C14.055 10.5016 13.7145 10.2465 13.3218 10.1103C12.929 9.97418 12.5037 9.96376 12.1048 10.0805C11.7059 10.1973 11.3532 10.4354 11.0959 10.7618M11.3333 13.3332H4.66659M11.3333 13.3332V11.9998C11.3333 11.5625 11.2493 11.1445 11.0959 10.7618M11.0959 10.7618C10.8483 10.1431 10.4211 9.61281 9.86925 9.23925C9.31741 8.86569 8.66631 8.66604 7.99992 8.66604C7.33353 8.66604 6.68243 8.86569 6.13059 9.23925C5.57875 9.61281 5.15149 10.1431 4.90392 10.7618M4.66659 13.3332H1.33325V11.9998C1.33328 11.5842 1.46281 11.1789 1.70383 10.8403C1.94484 10.5016 2.28538 10.2465 2.67809 10.1103C3.0708 9.97418 3.49617 9.96376 3.89508 10.0805C4.29398 10.1973 4.6466 10.4354 4.90392 10.7618M4.66659 13.3332V11.9998C4.66659 11.5625 4.75059 11.1445 4.90392 10.7618M9.99992 4.6665C9.99992 5.19694 9.78921 5.70565 9.41413 6.08072C9.03906 6.45579 8.53035 6.6665 7.99992 6.6665C7.46949 6.6665 6.96078 6.45579 6.5857 6.08072C6.21063 5.70565 5.99992 5.19694 5.99992 4.6665C5.99992 4.13607 6.21063 3.62736 6.5857 3.25229C6.96078 2.87722 7.46949 2.6665 7.99992 2.6665C8.53035 2.6665 9.03906 2.87722 9.41413 3.25229C9.78921 3.62736 9.99992 4.13607 9.99992 4.6665ZM13.9999 6.6665C13.9999 7.02013 13.8594 7.35926 13.6094 7.60931C13.3593 7.85936 13.0202 7.99984 12.6666 7.99984C12.313 7.99984 11.9738 7.85936 11.7238 7.60931C11.4737 7.35926 11.3333 7.02013 11.3333 6.6665C11.3333 6.31288 11.4737 5.97374 11.7238 5.7237C11.9738 5.47365 12.313 5.33317 12.6666 5.33317C13.0202 5.33317 13.3593 5.47365 13.6094 5.7237C13.8594 5.97374 13.9999 6.31288 13.9999 6.6665ZM4.66659 6.6665C4.66659 7.02013 4.52611 7.35926 4.27606 7.60931C4.02601 7.85936 3.68687 7.99984 3.33325 7.99984C2.97963 7.99984 2.64049 7.85936 2.39044 7.60931C2.14039 7.35926 1.99992 7.02013 1.99992 6.6665C1.99992 6.31288 2.14039 5.97374 2.39044 5.7237C2.64049 5.47365 2.97963 5.33317 3.33325 5.33317C3.68687 5.33317 4.02601 5.47365 4.27606 5.7237C4.52611 5.97374 4.66659 6.31288 4.66659 6.6665Z" stroke="#6B7280" stroke-width="1.33333" stroke-linecap="round" stroke-linejoin="round"/>
</svg>
