<svg width="32" height="32" viewBox="0 0 32 32" fill="none" xmlns="http://www.w3.org/2000/svg">
<path d="M16 20V22.6667M7.99998 28H24C24.7072 28 25.3855 27.719 25.8856 27.219C26.3857 26.7189 26.6666 26.0406 26.6666 25.3333V17.3333C26.6666 16.6261 26.3857 15.9478 25.8856 15.4477C25.3855 14.9476 24.7072 14.6667 24 14.6667H7.99998C7.29274 14.6667 6.61446 14.9476 6.11436 15.4477C5.61426 15.9478 5.33331 16.6261 5.33331 17.3333V25.3333C5.33331 26.0406 5.61426 26.7189 6.11436 27.219C6.61446 27.719 7.29274 28 7.99998 28ZM21.3333 14.6667V9.33333C21.3333 7.91885 20.7714 6.56229 19.7712 5.5621C18.771 4.5619 17.4145 4 16 4C14.5855 4 13.2289 4.5619 12.2287 5.5621C11.2285 6.56229 10.6666 7.91885 10.6666 9.33333V14.6667H21.3333Z" stroke="white" stroke-width="2.66667" stroke-linecap="round" stroke-linejoin="round"/>
</svg>
