<svg width="16" height="16" viewBox="0 0 16 16" fill="none" xmlns="http://www.w3.org/2000/svg">
<path d="M11.7712 11.1047L8.94251 13.9334C8.8188 14.0572 8.67191 14.1554 8.51021 14.2225C8.34852 14.2895 8.17521 14.324 8.00017 14.324C7.82514 14.324 7.65183 14.2895 7.49013 14.2225C7.32844 14.1554 7.18155 14.0572 7.05784 13.9334L4.22851 11.1047C3.48265 10.3588 2.97473 9.40852 2.76896 8.37396C2.5632 7.3394 2.66883 6.26706 3.07251 5.29254C3.47618 4.31801 4.15977 3.48508 5.03683 2.89905C5.91388 2.31303 6.94502 2.00024 7.99984 2.00024C9.05466 2.00024 10.0858 2.31303 10.9629 2.89905C11.8399 3.48508 12.5235 4.31801 12.9272 5.29254C13.3308 6.26706 13.4365 7.3394 13.2307 8.37396C13.0249 9.40852 12.517 10.3588 11.7712 11.1047Z" stroke="#6B7280" stroke-width="1.33333" stroke-linecap="round" stroke-linejoin="round"/>
<path d="M10 7.33325C10 7.86369 9.78929 8.37239 9.41421 8.74747C9.03914 9.12254 8.53043 9.33325 8 9.33325C7.46957 9.33325 6.96086 9.12254 6.58579 8.74747C6.21071 8.37239 6 7.86369 6 7.33325C6 6.80282 6.21071 6.29411 6.58579 5.91904C6.96086 5.54397 7.46957 5.33325 8 5.33325C8.53043 5.33325 9.03914 5.54397 9.41421 5.91904C9.78929 6.29411 10 6.80282 10 7.33325Z" stroke="#6B7280" stroke-width="1.33333" stroke-linecap="round" stroke-linejoin="round"/>
</svg>
