<svg width="16" height="16" viewBox="0 0 16 16" fill="none" xmlns="http://www.w3.org/2000/svg">
<path d="M5.78922 8.89466C5.92389 8.62533 5.99989 8.32133 5.99989 8C5.99989 7.67866 5.92389 7.37466 5.78922 7.10533M5.78922 8.89466C5.58769 9.29759 5.25603 9.62067 4.84795 9.81157C4.43988 10.0025 3.97931 10.05 3.54085 9.94646C3.10239 9.84293 2.71174 9.59439 2.43217 9.24111C2.15259 8.88783 2.00049 8.45051 2.00049 8C2.00049 7.54948 2.15259 7.11216 2.43217 6.75888C2.71174 6.4056 3.10239 6.15706 3.54085 6.05353C3.97931 5.94999 4.43988 5.99752 4.84795 6.18842C5.25603 6.37932 5.58769 6.7024 5.78922 7.10533M5.78922 8.89466L10.2106 11.1053M5.78922 7.10533L10.2106 4.89466M10.2106 11.1053C10.0931 11.3403 10.023 11.596 10.0044 11.8581C9.98572 12.1201 10.0189 12.3832 10.1019 12.6324C10.185 12.8816 10.3163 13.112 10.4884 13.3104C10.6605 13.5089 10.87 13.6715 11.1049 13.789C11.3398 13.9065 11.5956 13.9765 11.8576 13.9952C12.1196 14.0138 12.3827 13.9807 12.6319 13.8976C12.8811 13.8146 13.1116 13.6833 13.31 13.5112C13.5085 13.3391 13.6711 13.1296 13.7886 12.8947C14.0258 12.4202 14.0649 11.8709 13.8972 11.3676C13.7295 10.8643 13.3687 10.4483 12.8942 10.211C12.4198 9.97371 11.8705 9.93464 11.3672 10.1024C10.8639 10.2701 10.4478 10.6309 10.2106 11.1053ZM10.2106 4.89466C10.328 5.1296 10.4907 5.33909 10.6891 5.51118C10.8876 5.68327 11.118 5.81459 11.3672 5.89763C11.6164 5.98068 11.8795 6.01383 12.1415 5.99519C12.4035 5.97655 12.6593 5.90648 12.8942 5.789C13.1292 5.67151 13.3387 5.50889 13.5107 5.31044C13.6828 5.11199 13.8141 4.88159 13.8972 4.63238C13.9802 4.38318 14.0134 4.12006 13.9948 3.85805C13.9761 3.59604 13.906 3.34026 13.7886 3.10533C13.5513 2.63086 13.1352 2.27008 12.6319 2.10236C12.1287 1.93464 11.5794 1.97371 11.1049 2.21099C10.6304 2.44828 10.2696 2.86432 10.1019 3.36761C9.9342 3.87089 9.97328 4.42019 10.2106 4.89466Z" stroke="#6B7280" stroke-width="1.33333" stroke-linecap="round" stroke-linejoin="round"/>
</svg>
