<svg width="16" height="16" viewBox="0 0 16 16" fill="none" xmlns="http://www.w3.org/2000/svg">
<path d="M11.3335 13.3334H14.6668V12.0001C14.6668 11.5844 14.5373 11.1791 14.2963 10.8405C14.0552 10.5019 13.7147 10.2467 13.322 10.1106C12.9293 9.97443 12.5039 9.964 12.105 10.0808C11.7061 10.1975 11.3535 10.4357 11.0962 10.7621M11.3335 13.3334H4.66683M11.3335 13.3334V12.0001C11.3335 11.5627 11.2495 11.1447 11.0962 10.7621M11.0962 10.7621C10.8486 10.1434 10.4213 9.61306 9.86949 9.2395C9.31766 8.86594 8.66655 8.66628 8.00016 8.66628C7.33377 8.66628 6.68267 8.86594 6.13083 9.2395C5.57899 9.61306 5.15173 10.1434 4.90416 10.7621M4.66683 13.3334H1.3335V12.0001C1.33353 11.5844 1.46305 11.1791 1.70407 10.8405C1.94509 10.5019 2.28562 10.2467 2.67833 10.1106C3.07104 9.97443 3.49641 9.964 3.89532 10.0808C4.29423 10.1975 4.64685 10.4357 4.90416 10.7621M4.66683 13.3334V12.0001C4.66683 11.5627 4.75083 11.1447 4.90416 10.7621M10.0002 4.66675C10.0002 5.19718 9.78945 5.70589 9.41438 6.08096C9.0393 6.45603 8.5306 6.66675 8.00016 6.66675C7.46973 6.66675 6.96102 6.45603 6.58595 6.08096C6.21088 5.70589 6.00016 5.19718 6.00016 4.66675C6.00016 4.13632 6.21088 3.62761 6.58595 3.25253C6.96102 2.87746 7.46973 2.66675 8.00016 2.66675C8.5306 2.66675 9.0393 2.87746 9.41438 3.25253C9.78945 3.62761 10.0002 4.13632 10.0002 4.66675ZM14.0002 6.66675C14.0002 7.02037 13.8597 7.35951 13.6096 7.60956C13.3596 7.85961 13.0205 8.00008 12.6668 8.00008C12.3132 8.00008 11.9741 7.85961 11.724 7.60956C11.474 7.35951 11.3335 7.02037 11.3335 6.66675C11.3335 6.31313 11.474 5.97399 11.724 5.72394C11.9741 5.47389 12.3132 5.33341 12.6668 5.33341C13.0205 5.33341 13.3596 5.47389 13.6096 5.72394C13.8597 5.97399 14.0002 6.31313 14.0002 6.66675ZM4.66683 6.66675C4.66683 7.02037 4.52635 7.35951 4.27631 7.60956C4.02626 7.85961 3.68712 8.00008 3.3335 8.00008C2.97987 8.00008 2.64074 7.85961 2.39069 7.60956C2.14064 7.35951 2.00016 7.02037 2.00016 6.66675C2.00016 6.31313 2.14064 5.97399 2.39069 5.72394C2.64074 5.47389 2.97987 5.33341 3.3335 5.33341C3.68712 5.33341 4.02626 5.47389 4.27631 5.72394C4.52635 5.97399 4.66683 6.31313 4.66683 6.66675Z" stroke="white" stroke-width="1.33333" stroke-linecap="round" stroke-linejoin="round"/>
</svg>
