<svg width="32" height="32" viewBox="0 0 32 32" fill="none" xmlns="http://www.w3.org/2000/svg">
<path d="M22.6665 26.6683H29.3332V24.0016C29.3331 23.1703 29.0741 22.3597 28.592 21.6825C28.11 21.0052 27.4289 20.4949 26.6435 20.2226C25.8581 19.9503 25.0073 19.9295 24.2095 20.163C23.4117 20.3965 22.7065 20.8728 22.1918 21.5256M22.6665 26.6683H9.33317M22.6665 26.6683V24.0016C22.6665 23.127 22.4985 22.291 22.1918 21.5256M22.1918 21.5256C21.6967 20.2882 20.8422 19.2276 19.7385 18.4805C18.6348 17.7333 17.3326 17.334 15.9998 17.334C14.6671 17.334 13.3649 17.7333 12.2612 18.4805C11.1575 19.2276 10.303 20.2882 9.80784 21.5256M9.33317 26.6683H2.6665V24.0016C2.66656 23.1703 2.92562 22.3597 3.40765 21.6825C3.88969 21.0052 4.57075 20.4949 5.35617 20.2226C6.14159 19.9503 6.99234 19.9295 7.79016 20.163C8.58797 20.3965 9.29321 20.8728 9.80784 21.5256M9.33317 26.6683V24.0016C9.33317 23.127 9.50117 22.291 9.80784 21.5256M19.9998 9.33496C19.9998 10.3958 19.5784 11.4132 18.8283 12.1634C18.0781 12.9135 17.0607 13.335 15.9998 13.335C14.939 13.335 13.9216 12.9135 13.1714 12.1634C12.4213 11.4132 11.9998 10.3958 11.9998 9.33496C11.9998 8.2741 12.4213 7.25668 13.1714 6.50653C13.9216 5.75639 14.939 5.33496 15.9998 5.33496C17.0607 5.33496 18.0781 5.75639 18.8283 6.50653C19.5784 7.25668 19.9998 8.2741 19.9998 9.33496ZM27.9998 13.335C27.9998 14.0422 27.7189 14.7205 27.2188 15.2206C26.7187 15.7207 26.0404 16.0016 25.3332 16.0016C24.6259 16.0016 23.9477 15.7207 23.4476 15.2206C22.9475 14.7205 22.6665 14.0422 22.6665 13.335C22.6665 12.6277 22.9475 11.9494 23.4476 11.4493C23.9477 10.9492 24.6259 10.6683 25.3332 10.6683C26.0404 10.6683 26.7187 10.9492 27.2188 11.4493C27.7189 11.9494 27.9998 12.6277 27.9998 13.335ZM9.33317 13.335C9.33317 14.0422 9.05222 14.7205 8.55212 15.2206C8.05203 15.7207 7.37375 16.0016 6.6665 16.0016C5.95926 16.0016 5.28098 15.7207 4.78089 15.2206C4.28079 14.7205 3.99984 14.0422 3.99984 13.335C3.99984 12.6277 4.28079 11.9494 4.78089 11.4493C5.28098 10.9492 5.95926 10.6683 6.6665 10.6683C7.37375 10.6683 8.05203 10.9492 8.55212 11.4493C9.05222 11.9494 9.33317 12.6277 9.33317 13.335Z" stroke="white" stroke-width="2.66667" stroke-linecap="round" stroke-linejoin="round"/>
</svg>
