<svg width="32" height="32" viewBox="0 0 32 32" fill="none" xmlns="http://www.w3.org/2000/svg">
<path d="M16 10.6659C13.7907 10.6659 12 11.8593 12 13.3326C12 14.8059 13.7907 15.9993 16 15.9993C18.2093 15.9993 20 17.1926 20 18.6659C20 20.1393 18.2093 21.3326 16 21.3326M16 10.6659C17.48 10.6659 18.7733 11.2019 19.4653 11.9993M16 10.6659V9.3326M16 10.6659V21.3326M16 21.3326V22.6659M16 21.3326C14.52 21.3326 13.2267 20.7966 12.5347 19.9993M28 15.9993C28 17.5751 27.6896 19.1356 27.0866 20.5915C26.4835 22.0474 25.5996 23.3702 24.4853 24.4846C23.371 25.5989 22.0481 26.4828 20.5922 27.0858C19.1363 27.6889 17.5759 27.9993 16 27.9993C14.4241 27.9993 12.8637 27.6889 11.4078 27.0858C9.95189 26.4828 8.62902 25.5989 7.51472 24.4846C6.40042 23.3702 5.5165 22.0474 4.91345 20.5915C4.31039 19.1356 4 17.5751 4 15.9993C4 12.8167 5.26428 9.76442 7.51472 7.51399C9.76516 5.26355 12.8174 3.99927 16 3.99927C19.1826 3.99927 22.2348 5.26355 24.4853 7.51399C26.7357 9.76442 28 12.8167 28 15.9993Z" stroke="white" stroke-width="2.66667" stroke-linecap="round" stroke-linejoin="round"/>
</svg>
