<svg width="24" height="24" viewBox="0 0 24 24" fill="none" xmlns="http://www.w3.org/2000/svg">
<path d="M12.017 0C5.39599 0 0.0289934 5.367 0.0289934 11.987C0.0289934 17.066 3.18699 21.404 7.64699 23.161C7.54199 22.212 7.44799 20.758 7.68799 19.722C7.90699 18.785 9.09399 13.765 9.09399 13.765C9.09399 13.765 8.73499 13.045 8.73499 11.984C8.73499 10.321 9.70199 9.073 10.903 9.073C11.927 9.073 12.421 9.842 12.421 10.761C12.421 11.79 11.768 13.328 11.429 14.753C11.144 15.946 12.029 16.918 13.204 16.918C15.332 16.918 16.972 14.673 16.972 11.431C16.972 8.57 14.909 6.562 11.964 6.562C8.55399 6.562 6.55499 9.124 6.55499 11.761C6.55499 12.794 6.94899 13.904 7.44399 14.502C7.54299 14.622 7.55599 14.727 7.52899 14.847C7.43899 15.222 7.23599 16.046 7.19499 16.21C7.14199 16.435 7.02299 16.481 6.79299 16.375C5.29799 15.685 4.35999 13.497 4.35999 11.729C4.35999 7.953 7.10799 4.477 12.28 4.477C16.438 4.477 19.672 7.444 19.672 11.4C19.672 15.535 17.065 18.862 13.439 18.862C12.225 18.862 11.082 18.233 10.689 17.484L9.94099 20.337C9.66999 21.38 8.93899 22.687 8.44899 23.483C9.56999 23.812 10.763 24.009 12.017 24.009C18.641 24.009 24.007 18.642 24.007 12.021C24.007 5.367 18.641 0.001 0.0119934 0.001L12.017 0Z" fill="#9CA3AF"/>
</svg>
