<svg width="20" height="20" viewBox="0 0 20 20" fill="none" xmlns="http://www.w3.org/2000/svg">
<path d="M2.5 3.33333C2.5 3.11232 2.5878 2.90036 2.74408 2.74408C2.90036 2.5878 3.11232 2.5 3.33333 2.5H16.6667C16.8877 2.5 17.0996 2.5878 17.2559 2.74408C17.4122 2.90036 17.5 3.11232 17.5 3.33333V5.48833C17.5 5.70933 17.4121 5.92126 17.2558 6.0775L11.9108 11.4225C11.7545 11.5787 11.6667 11.7907 11.6667 12.0117V14.1667L8.33333 17.5V12.0117C8.33329 11.7907 8.24546 11.5787 8.08917 11.4225L2.74417 6.00583C2.58788 5.84959 2.50005 5.63766 2.5 5.41667V3.33333Z" stroke="white" stroke-width="1.66667" stroke-linecap="round" stroke-linejoin="round"/>
</svg>
