<svg width="32" height="32" viewBox="0 0 32 32" fill="none" xmlns="http://www.w3.org/2000/svg">
<path d="M22.6665 26.6666H29.3332V23.9999C29.3331 23.1686 29.0741 22.358 28.592 21.6808C28.11 21.0035 27.4289 20.4932 26.6435 20.2209C25.8581 19.9486 25.0073 19.9278 24.2095 20.1613C23.4117 20.3948 22.7065 20.8711 22.1918 21.5239M22.6665 26.6666H9.33317M22.6665 26.6666V23.9999C22.6665 23.1253 22.4985 22.2893 22.1918 21.5239M22.1918 21.5239C21.6967 20.2865 20.8422 19.2259 19.7385 18.4787C18.6348 17.7316 17.3326 17.3323 15.9998 17.3323C14.6671 17.3323 13.3649 17.7316 12.2612 18.4787C11.1575 19.2259 10.303 20.2865 9.80784 21.5239M9.33317 26.6666H2.6665V23.9999C2.66656 23.1686 2.92562 22.358 3.40765 21.6808C3.88969 21.0035 4.57075 20.4932 5.35617 20.2209C6.14159 19.9486 6.99234 19.9278 7.79015 20.1613C8.58797 20.3948 9.29321 20.8711 9.80784 21.5239M9.33317 26.6666V23.9999C9.33317 23.1253 9.50117 22.2893 9.80784 21.5239M19.9998 9.33325C19.9998 10.3941 19.5784 11.4115 18.8283 12.1617C18.0781 12.9118 17.0607 13.3333 15.9998 13.3333C14.939 13.3333 13.9216 12.9118 13.1714 12.1617C12.4213 11.4115 11.9998 10.3941 11.9998 9.33325C11.9998 8.27239 12.4213 7.25497 13.1714 6.50482C13.9216 5.75468 14.939 5.33325 15.9998 5.33325C17.0607 5.33325 18.0781 5.75468 18.8283 6.50482C19.5784 7.25497 19.9998 8.27239 19.9998 9.33325ZM27.9998 13.3333C27.9998 14.0405 27.7189 14.7188 27.2188 15.2189C26.7187 15.719 26.0404 15.9999 25.3332 15.9999C24.6259 15.9999 23.9477 15.719 23.4476 15.2189C22.9475 14.7188 22.6665 14.0405 22.6665 13.3333C22.6665 12.626 22.9475 11.9477 23.4476 11.4476C23.9477 10.9475 24.6259 10.6666 25.3332 10.6666C26.0404 10.6666 26.7187 10.9475 27.2188 11.4476C27.7189 11.9477 27.9998 12.626 27.9998 13.3333ZM9.33317 13.3333C9.33317 14.0405 9.05222 14.7188 8.55212 15.2189C8.05203 15.719 7.37375 15.9999 6.6665 15.9999C5.95926 15.9999 5.28098 15.719 4.78089 15.2189C4.28079 14.7188 3.99984 14.0405 3.99984 13.3333C3.99984 12.626 4.28079 11.9477 4.78089 11.4476C5.28098 10.9475 5.95926 10.6666 6.6665 10.6666C7.37375 10.6666 8.05203 10.9475 8.55212 11.4476C9.05222 11.9477 9.33317 12.626 9.33317 13.3333Z" stroke="white" stroke-width="2.66667" stroke-linecap="round" stroke-linejoin="round"/>
</svg>
