<svg width="32" height="32" viewBox="0 0 32 32" fill="none" xmlns="http://www.w3.org/2000/svg">
<path d="M22.6665 26.6682H29.3332V24.0015C29.3331 23.1702 29.0741 22.3596 28.592 21.6823C28.11 21.0051 27.4289 20.4948 26.6435 20.2225C25.8581 19.9502 25.0073 19.9293 24.2095 20.1629C23.4117 20.3964 22.7065 20.8727 22.1918 21.5255M22.6665 26.6682H9.33317M22.6665 26.6682V24.0015C22.6665 23.1268 22.4985 22.2908 22.1918 21.5255M22.1918 21.5255C21.6967 20.2881 20.8422 19.2275 19.7385 18.4803C18.6348 17.7332 17.3326 17.3339 15.9998 17.3339C14.6671 17.3339 13.3649 17.7332 12.2612 18.4803C11.1575 19.2275 10.303 20.2881 9.80784 21.5255M9.33317 26.6682H2.6665V24.0015C2.66656 23.1702 2.92562 22.3596 3.40765 21.6823C3.88969 21.0051 4.57075 20.4948 5.35617 20.2225C6.14159 19.9502 6.99234 19.9293 7.79016 20.1629C8.58797 20.3964 9.29321 20.8727 9.80784 21.5255M9.33317 26.6682V24.0015C9.33317 23.1268 9.50117 22.2908 9.80784 21.5255M19.9998 9.33484C19.9998 10.3957 19.5784 11.4131 18.8283 12.1633C18.0781 12.9134 17.0607 13.3348 15.9998 13.3348C14.939 13.3348 13.9216 12.9134 13.1714 12.1633C12.4213 11.4131 11.9998 10.3957 11.9998 9.33484C11.9998 8.27397 12.4213 7.25656 13.1714 6.50641C13.9216 5.75627 14.939 5.33484 15.9998 5.33484C17.0607 5.33484 18.0781 5.75627 18.8283 6.50641C19.5784 7.25656 19.9998 8.27397 19.9998 9.33484ZM27.9998 13.3348C27.9998 14.0421 27.7189 14.7204 27.2188 15.2205C26.7187 15.7206 26.0404 16.0015 25.3332 16.0015C24.6259 16.0015 23.9477 15.7206 23.4476 15.2205C22.9475 14.7204 22.6665 14.0421 22.6665 13.3348C22.6665 12.6276 22.9475 11.9493 23.4476 11.4492C23.9477 10.9491 24.6259 10.6682 25.3332 10.6682C26.0404 10.6682 26.7187 10.9491 27.2188 11.4492C27.7189 11.9493 27.9998 12.6276 27.9998 13.3348ZM9.33317 13.3348C9.33317 14.0421 9.05222 14.7204 8.55212 15.2205C8.05203 15.7206 7.37375 16.0015 6.6665 16.0015C5.95926 16.0015 5.28098 15.7206 4.78089 15.2205C4.28079 14.7204 3.99984 14.0421 3.99984 13.3348C3.99984 12.6276 4.28079 11.9493 4.78089 11.4492C5.28098 10.9491 5.95926 10.6682 6.6665 10.6682C7.37375 10.6682 8.05203 10.9491 8.55212 11.4492C9.05222 11.9493 9.33317 12.6276 9.33317 13.3348Z" stroke="white" stroke-width="2.66667" stroke-linecap="round" stroke-linejoin="round"/>
</svg>
