<svg width="32" height="32" viewBox="0 0 32 32" fill="none" xmlns="http://www.w3.org/2000/svg">
<path d="M14.7319 3.90245C15.1319 2.67445 16.8692 2.67445 17.2679 3.90245L19.2932 10.1344C19.3804 10.4018 19.5498 10.6347 19.7773 10.7999C20.0048 10.9652 20.2787 11.0542 20.5599 11.0544H27.1132C28.4052 11.0544 28.9412 12.7078 27.8972 13.4678L22.5959 17.3184C22.3682 17.484 22.1987 17.7174 22.1117 17.9852C22.0248 18.2529 22.0248 18.5414 22.1119 18.8091L24.1359 25.0411C24.5359 26.2704 23.1292 27.2918 22.0852 26.5318L16.7839 22.6811C16.556 22.5155 16.2816 22.4263 15.9999 22.4263C15.7182 22.4263 15.4437 22.5155 15.2159 22.6811L9.91455 26.5318C8.87055 27.2918 7.46388 26.2691 7.86388 25.0411L9.88788 18.8091C9.97492 18.5414 9.97497 18.2529 9.88803 17.9852C9.80108 17.7174 9.63161 17.484 9.40388 17.3184L4.10255 13.4678C3.05722 12.7078 3.59588 11.0544 4.88655 11.0544H11.4386C11.7199 11.0545 11.9942 10.9656 12.2219 10.8003C12.4497 10.6351 12.6193 10.402 12.7065 10.1344L14.7319 3.90245Z" stroke="white" stroke-width="2.66667" stroke-linecap="round" stroke-linejoin="round"/>
</svg>
