<svg width="16" height="16" viewBox="0 0 16 16" fill="none" xmlns="http://www.w3.org/2000/svg">
<path d="M4.66683 2.66675V1.33341C4.66683 1.1566 4.73707 0.987034 4.86209 0.86201C4.98712 0.736986 5.15669 0.666748 5.3335 0.666748H10.6668C10.8436 0.666748 11.0132 0.736986 11.1382 0.86201C11.2633 0.987034 11.3335 1.1566 11.3335 1.33341V2.66675M5.3335 5.33341V12.0001C5.3335 12.3537 5.47397 12.6928 5.72402 12.9429C5.97407 13.1929 6.31321 13.3334 6.66683 13.3334H10.6668C11.0205 13.3334 11.3596 13.1929 11.6096 12.9429C11.8597 12.6928 12.0002 12.3537 12.0002 12.0001V5.33341M3.3335 4.00008L4.66683 5.33341H11.3335L12.6668 4.00008" stroke="white" stroke-width="1.33333" stroke-linecap="round" stroke-linejoin="round"/>
</svg>
