<svg width="96" height="96" viewBox="0 0 96 96" fill="none" xmlns="http://www.w3.org/2000/svg">
<path d="M70.628 66.6278L53.656 83.5998C52.9138 84.3428 52.0324 84.9322 51.0623 85.3343C50.0921 85.7364 49.0522 85.9434 48.002 85.9434C46.9518 85.9434 45.9119 85.7364 44.9418 85.3343C43.9716 84.9322 43.0902 84.3428 42.348 83.5998L25.372 66.6278C20.8969 62.1525 17.8494 56.4506 16.6148 50.2433C15.3802 44.0359 16.014 37.6019 18.436 31.7547C20.8581 25.9076 24.9596 20.91 30.2219 17.3938C35.4843 13.8777 41.6711 12.001 48 12.001C54.3289 12.001 60.5158 13.8777 65.7781 17.3938C71.0404 20.91 75.142 25.9076 77.564 31.7547C79.9861 37.6019 80.6199 44.0359 79.3853 50.2433C78.1507 56.4506 75.1031 62.1525 70.628 66.6278Z" stroke="#B8860B" stroke-width="8" stroke-linecap="round" stroke-linejoin="round"/>
<path d="M60 44C60 47.1826 58.7357 50.2348 56.4853 52.4853C54.2348 54.7357 51.1826 56 48 56C44.8174 56 41.7652 54.7357 39.5147 52.4853C37.2643 50.2348 36 47.1826 36 44C36 40.8174 37.2643 37.7652 39.5147 35.5147C41.7652 33.2643 44.8174 32 48 32C51.1826 32 54.2348 33.2643 56.4853 35.5147C58.7357 37.7652 60 40.8174 60 44Z" stroke="#B8860B" stroke-width="8" stroke-linecap="round" stroke-linejoin="round"/>
</svg>
