<svg width="32" height="32" viewBox="0 0 32 32" fill="none" xmlns="http://www.w3.org/2000/svg">
<path d="M14.7321 3.90245C15.1321 2.67445 16.8695 2.67445 17.2681 3.90245L19.2935 10.1344C19.3806 10.4018 19.5501 10.6347 19.7776 10.7999C20.0051 10.9652 20.279 11.0542 20.5601 11.0544H27.1135C28.4055 11.0544 28.9415 12.7078 27.8975 13.4678L22.5961 17.3184C22.3684 17.484 22.1989 17.7174 22.112 17.9852C22.025 18.2529 22.0251 18.5414 22.1121 18.8091L24.1361 25.0411C24.5361 26.2704 23.1295 27.2918 22.0855 26.5318L16.7841 22.6811C16.5563 22.5155 16.2818 22.4263 16.0001 22.4263C15.7184 22.4263 15.444 22.5155 15.2161 22.6811L9.91479 26.5318C8.87079 27.2918 7.46413 26.2691 7.86413 25.0411L9.88813 18.8091C9.97516 18.5414 9.97522 18.2529 9.88827 17.9852C9.80133 17.7174 9.63185 17.484 9.40413 17.3184L4.10279 13.4678C3.05746 12.7078 3.59613 11.0544 4.88679 11.0544H11.4388C11.7202 11.0545 11.9944 10.9656 12.2222 10.8003C12.4499 10.6351 12.6196 10.402 12.7068 10.1344L14.7321 3.90245Z" stroke="white" stroke-width="2.66667" stroke-linecap="round" stroke-linejoin="round"/>
</svg>
