<svg width="32" height="32" viewBox="0 0 32 32" fill="none" xmlns="http://www.w3.org/2000/svg">
<path d="M22.6667 26.6668H29.3334V24.0002C29.3334 23.1689 29.0743 22.3583 28.5923 21.681C28.1102 21.0037 27.4292 20.4935 26.6437 20.2212C25.8583 19.9489 25.0076 19.928 24.2098 20.1615C23.4119 20.395 22.7067 20.8713 22.1921 21.5242M22.6667 26.6668H9.33341M22.6667 26.6668V24.0002C22.6667 23.1255 22.4987 22.2895 22.1921 21.5242M22.1921 21.5242C21.6969 20.2868 20.8424 19.2261 19.7387 18.479C18.6351 17.7319 17.3329 17.3326 16.0001 17.3326C14.6673 17.3326 13.3651 17.7319 12.2614 18.479C11.1577 19.2261 10.3032 20.2868 9.80808 21.5242M9.33341 26.6668H2.66675V24.0002C2.66681 23.1689 2.92586 22.3583 3.4079 21.681C3.88993 21.0037 4.571 20.4935 5.35642 20.2212C6.14183 19.9489 6.99258 19.928 7.7904 20.1615C8.58821 20.395 9.29345 20.8713 9.80808 21.5242M9.33341 26.6668V24.0002C9.33341 23.1255 9.50141 22.2895 9.80808 21.5242M20.0001 9.3335C20.0001 10.3944 19.5787 11.4118 18.8285 12.1619C18.0784 12.9121 17.0609 13.3335 16.0001 13.3335C14.9392 13.3335 13.9218 12.9121 13.1717 12.1619C12.4215 11.4118 12.0001 10.3944 12.0001 9.3335C12.0001 8.27263 12.4215 7.25521 13.1717 6.50507C13.9218 5.75492 14.9392 5.3335 16.0001 5.3335C17.0609 5.3335 18.0784 5.75492 18.8285 6.50507C19.5787 7.25521 20.0001 8.27263 20.0001 9.3335ZM28.0001 13.3335C28.0001 14.0407 27.7191 14.719 27.219 15.2191C26.7189 15.7192 26.0407 16.0002 25.3334 16.0002C24.6262 16.0002 23.9479 15.7192 23.4478 15.2191C22.9477 14.719 22.6667 14.0407 22.6667 13.3335C22.6667 12.6263 22.9477 11.948 23.4478 11.4479C23.9479 10.9478 24.6262 10.6668 25.3334 10.6668C26.0407 10.6668 26.7189 10.9478 27.219 11.4479C27.7191 11.948 28.0001 12.6263 28.0001 13.3335ZM9.33341 13.3335C9.33341 14.0407 9.05246 14.719 8.55237 15.2191C8.05227 15.7192 7.37399 16.0002 6.66675 16.0002C5.9595 16.0002 5.28123 15.7192 4.78113 15.2191C4.28103 14.719 4.00008 14.0407 4.00008 13.3335C4.00008 12.6263 4.28103 11.948 4.78113 11.4479C5.28123 10.9478 5.9595 10.6668 6.66675 10.6668C7.37399 10.6668 8.05227 10.9478 8.55237 11.4479C9.05246 11.948 9.33341 12.6263 9.33341 13.3335Z" stroke="white" stroke-width="2.66667" stroke-linecap="round" stroke-linejoin="round"/>
</svg>
