<svg width="40" height="40" viewBox="0 0 40 40" fill="none" xmlns="http://www.w3.org/2000/svg">
<path d="M25 20C25 21.3261 24.4732 22.5979 23.5355 23.5355C22.5979 24.4732 21.3261 25 20 25C18.6739 25 17.4021 24.4732 16.4645 23.5355C15.5268 22.5979 15 21.3261 15 20C15 18.6739 15.5268 17.4021 16.4645 16.4645C17.4021 15.5268 18.6739 15 20 15C21.3261 15 22.5979 15.5268 23.5355 16.4645C24.4732 17.4021 25 18.6739 25 20Z" stroke="white" stroke-width="3.33333" stroke-linecap="round" stroke-linejoin="round"/>
<path d="M4.09668 19.9999C6.22001 13.2383 12.5383 8.33325 20 8.33325C27.4633 8.33325 33.78 13.2383 35.9033 19.9999C33.78 26.7616 27.4633 31.6666 20 31.6666C12.5383 31.6666 6.22001 26.7616 4.09668 19.9999Z" stroke="white" stroke-width="3.33333" stroke-linecap="round" stroke-linejoin="round"/>
</svg>
