<svg width="32" height="32" viewBox="0 0 32 32" fill="none" xmlns="http://www.w3.org/2000/svg">
<path d="M25.3333 14.6659H6.66667M25.3333 14.6659C26.0406 14.6659 26.7189 14.9469 27.219 15.447C27.7191 15.9471 28 16.6254 28 17.3326V25.3326C28 26.0398 27.7191 26.7181 27.219 27.2182C26.7189 27.7183 26.0406 27.9993 25.3333 27.9993H6.66667C5.95942 27.9993 5.28115 27.7183 4.78105 27.2182C4.28095 26.7181 4 26.0398 4 25.3326V17.3326C4 16.6254 4.28095 15.9471 4.78105 15.447C5.28115 14.9469 5.95942 14.6659 6.66667 14.6659M25.3333 14.6659V11.9993C25.3333 11.292 25.0524 10.6137 24.5523 10.1137C24.0522 9.61355 23.3739 9.3326 22.6667 9.3326M6.66667 14.6659V11.9993C6.66667 11.292 6.94762 10.6137 7.44772 10.1137C7.94781 9.61355 8.62609 9.3326 9.33333 9.3326M22.6667 9.3326V6.66593C22.6667 5.95869 22.3857 5.28041 21.8856 4.78032C21.3855 4.28022 20.7072 3.99927 20 3.99927H12C11.2928 3.99927 10.6145 4.28022 10.1144 4.78032C9.61429 5.28041 9.33333 5.95869 9.33333 6.66593V9.3326M22.6667 9.3326H9.33333" stroke="white" stroke-width="2.66667" stroke-linecap="round" stroke-linejoin="round"/>
</svg>
