<svg width="32" height="32" viewBox="0 0 32 32" fill="none" xmlns="http://www.w3.org/2000/svg">
<path d="M22.6667 26.6682H29.3333V24.0015C29.3333 23.1702 29.0742 22.3596 28.5922 21.6823C28.1101 21.0051 27.4291 20.4948 26.6437 20.2225C25.8582 19.9502 25.0075 19.9293 24.2097 20.1629C23.4119 20.3964 22.7066 20.8727 22.192 21.5255M22.6667 26.6682H9.33332M22.6667 26.6682V24.0015C22.6667 23.1268 22.4987 22.2908 22.192 21.5255M22.192 21.5255C21.6968 20.2881 20.8423 19.2275 19.7387 18.4803C18.635 17.7332 17.3328 17.3339 16 17.3339C14.6672 17.3339 13.365 17.7332 12.2613 18.4803C11.1577 19.2275 10.3031 20.2881 9.80799 21.5255M9.33332 26.6682H2.66666V24.0015C2.66672 23.1702 2.92577 22.3596 3.40781 21.6823C3.88984 21.0051 4.5709 20.4948 5.35632 20.2225C6.14174 19.9502 6.99249 19.9293 7.79031 20.1629C8.58812 20.3964 9.29336 20.8727 9.80799 21.5255M9.33332 26.6682V24.0015C9.33332 23.1268 9.50132 22.2908 9.80799 21.5255M20 9.33484C20 10.3957 19.5786 11.4131 18.8284 12.1633C18.0783 12.9134 17.0609 13.3348 16 13.3348C14.9391 13.3348 13.9217 12.9134 13.1716 12.1633C12.4214 11.4131 12 10.3957 12 9.33484C12 8.27397 12.4214 7.25656 13.1716 6.50641C13.9217 5.75627 14.9391 5.33484 16 5.33484C17.0609 5.33484 18.0783 5.75627 18.8284 6.50641C19.5786 7.25656 20 8.27397 20 9.33484ZM28 13.3348C28 14.0421 27.719 14.7204 27.2189 15.2205C26.7188 15.7206 26.0406 16.0015 25.3333 16.0015C24.6261 16.0015 23.9478 15.7206 23.4477 15.2205C22.9476 14.7204 22.6667 14.0421 22.6667 13.3348C22.6667 12.6276 22.9476 11.9493 23.4477 11.4492C23.9478 10.9491 24.6261 10.6682 25.3333 10.6682C26.0406 10.6682 26.7188 10.9491 27.2189 11.4492C27.719 11.9493 28 12.6276 28 13.3348ZM9.33332 13.3348C9.33332 14.0421 9.05237 14.7204 8.55228 15.2205C8.05218 15.7206 7.3739 16.0015 6.66666 16.0015C5.95941 16.0015 5.28114 15.7206 4.78104 15.2205C4.28094 14.7204 3.99999 14.0421 3.99999 13.3348C3.99999 12.6276 4.28094 11.9493 4.78104 11.4492C5.28114 10.9491 5.95941 10.6682 6.66666 10.6682C7.3739 10.6682 8.05218 10.9491 8.55228 11.4492C9.05237 11.9493 9.33332 12.6276 9.33332 13.3348Z" stroke="white" stroke-width="2.66667" stroke-linecap="round" stroke-linejoin="round"/>
</svg>
