<svg width="16" height="16" viewBox="0 0 16 16" fill="none" xmlns="http://www.w3.org/2000/svg">
<path d="M11.3335 13.3333H14.6668V12C14.6668 11.5843 14.5373 11.179 14.2963 10.8404C14.0552 10.5017 13.7147 10.2466 13.322 10.1105C12.9293 9.9743 12.5039 9.96388 12.105 10.0806C11.7061 10.1974 11.3535 10.4355 11.0962 10.762M11.3335 13.3333H4.66683M11.3335 13.3333V12C11.3335 11.5626 11.2495 11.1446 11.0962 10.762M11.0962 10.762C10.8486 10.1433 10.4213 9.61294 9.86949 9.23937C9.31766 8.86581 8.66655 8.66616 8.00016 8.66616C7.33377 8.66616 6.68267 8.86581 6.13083 9.23937C5.57899 9.61294 5.15173 10.1433 4.90416 10.762M4.66683 13.3333H1.3335V12C1.33353 11.5843 1.46305 11.179 1.70407 10.8404C1.94509 10.5017 2.28562 10.2466 2.67833 10.1105C3.07104 9.9743 3.49641 9.96388 3.89532 10.0806C4.29423 10.1974 4.64685 10.4355 4.90416 10.762M4.66683 13.3333V12C4.66683 11.5626 4.75083 11.1446 4.90416 10.762M10.0002 4.66663C10.0002 5.19706 9.78945 5.70577 9.41438 6.08084C9.0393 6.45591 8.5306 6.66663 8.00016 6.66663C7.46973 6.66663 6.96102 6.45591 6.58595 6.08084C6.21088 5.70577 6.00016 5.19706 6.00016 4.66663C6.00016 4.13619 6.21088 3.62749 6.58595 3.25241C6.96102 2.87734 7.46973 2.66663 8.00016 2.66663C8.5306 2.66663 9.0393 2.87734 9.41438 3.25241C9.78945 3.62749 10.0002 4.13619 10.0002 4.66663ZM14.0002 6.66663C14.0002 7.02025 13.8597 7.35939 13.6096 7.60943C13.3596 7.85948 13.0205 7.99996 12.6668 7.99996C12.3132 7.99996 11.9741 7.85948 11.724 7.60943C11.474 7.35939 11.3335 7.02025 11.3335 6.66663C11.3335 6.313 11.474 5.97387 11.724 5.72382C11.9741 5.47377 12.3132 5.33329 12.6668 5.33329C13.0205 5.33329 13.3596 5.47377 13.6096 5.72382C13.8597 5.97387 14.0002 6.313 14.0002 6.66663ZM4.66683 6.66663C4.66683 7.02025 4.52635 7.35939 4.27631 7.60943C4.02626 7.85948 3.68712 7.99996 3.3335 7.99996C2.97987 7.99996 2.64074 7.85948 2.39069 7.60943C2.14064 7.35939 2.00016 7.02025 2.00016 6.66663C2.00016 6.313 2.14064 5.97387 2.39069 5.72382C2.64074 5.47377 2.97987 5.33329 3.3335 5.33329C3.68712 5.33329 4.02626 5.47377 4.27631 5.72382C4.52635 5.97387 4.66683 6.313 4.66683 6.66663Z" stroke="#6B7280" stroke-width="1.33333" stroke-linecap="round" stroke-linejoin="round"/>
</svg>
