<svg width="32" height="32" viewBox="0 0 32 32" fill="none" xmlns="http://www.w3.org/2000/svg">
<path d="M12 16.0019L14.6667 18.6685L20 13.3352M10.4467 6.26454C11.4031 6.18821 12.3111 5.81215 13.0414 5.18988C13.8666 4.48624 14.9156 4.09973 16 4.09973C17.0845 4.09973 18.1335 4.48624 18.9587 5.18988C19.689 5.81215 20.597 6.18821 21.5534 6.26454C22.6344 6.35055 23.6494 6.81898 24.4162 7.58577C25.1829 8.35257 25.6514 9.36754 25.7374 10.4485C25.8137 11.405 26.1898 12.3129 26.812 13.0432C27.5157 13.8684 27.9022 14.9174 27.9022 16.0019C27.9022 17.0864 27.5157 18.1353 26.812 18.9605C26.1898 19.6908 25.8137 20.5988 25.7374 21.5552C25.6514 22.6362 25.1829 23.6512 24.4162 24.418C23.6494 25.1848 22.6344 25.6532 21.5534 25.7392C20.597 25.8155 19.689 26.1916 18.9587 26.8139C18.1335 27.5175 17.0845 27.904 16 27.904C14.9156 27.904 13.8666 27.5175 13.0414 26.8139C12.3111 26.1916 11.4031 25.8155 10.4467 25.7392C9.36571 25.6532 8.35074 25.1848 7.58394 24.418C6.81714 23.6512 6.34871 22.6362 6.26271 21.5552C6.18638 20.5988 5.81031 19.6908 5.18805 18.9605C4.4844 18.1353 4.0979 17.0864 4.0979 16.0019C4.0979 14.9174 4.4844 13.8684 5.18805 13.0432C5.81031 12.3129 6.18638 11.405 6.26271 10.4485C6.34871 9.36754 6.81714 8.35257 7.58394 7.58577C8.35074 6.81898 9.36571 6.35055 10.4467 6.26454Z" stroke="white" stroke-width="2.66667" stroke-linecap="round" stroke-linejoin="round"/>
</svg>
