<svg width="36" height="32" viewBox="0 0 36 32" fill="none" xmlns="http://www.w3.org/2000/svg">
<path d="M16 5.8046C16.7166 4.9922 17.6636 4.41728 18.7149 4.15633C19.7663 3.89537 20.8722 3.96077 21.8855 4.3438C22.8988 4.72684 23.7715 5.40936 24.3873 6.30055C25.0032 7.19173 25.333 8.24933 25.333 9.3326C25.333 10.4159 25.0032 11.4735 24.3873 12.3647C23.7715 13.2558 22.8988 13.9384 21.8855 14.3214C20.8722 14.7044 19.7663 14.7698 18.7149 14.5089C17.6636 14.2479 16.7166 13.673 16 12.8606M20 27.9993H4V26.6659C4 24.5442 4.84286 22.5094 6.34315 21.0091C7.84344 19.5088 9.87827 18.6659 12 18.6659C14.1217 18.6659 16.1566 19.5088 17.6569 21.0091C19.1571 22.5094 20 24.5442 20 26.6659V27.9993ZM20 27.9993H28V26.6659C28.0002 25.2615 27.6307 23.8819 26.9286 22.6655C26.2266 21.4492 25.2167 20.4392 24.0005 19.7369C22.7843 19.0346 21.4047 18.6649 20.0003 18.6648C18.5959 18.6648 17.2162 19.0344 16 19.7366M34 7.7366C34 8.62066 33.6488 9.4685 33.0237 10.0936C32.3986 10.7187 31.5507 11.0699 30.6667 11.0699C29.7826 11.0699 28.9348 10.7187 28.3096 10.0936C27.6845 9.4685 27.3333 8.62066 27.3333 7.7366C27.3333 6.85255 27.6845 6.0047 28.3096 5.37958C28.9348 4.75446 29.7826 4.40327 30.6667 4.40327C31.5507 4.40327 32.3986 4.75446 33.0237 5.37958C33.6488 6.0047 34 6.85255 34 7.7366Z" stroke="white" stroke-width="2.66667" stroke-linecap="round" stroke-linejoin="round"/>
</svg>
