<svg width="32" height="32" viewBox="0 0 32 32" fill="none" xmlns="http://www.w3.org/2000/svg">
<path d="M22.6667 11.9998V9.33317C22.6667 8.62593 22.3857 7.94765 21.8856 7.44755C21.3855 6.94746 20.7072 6.6665 20 6.6665H6.66667C5.95942 6.6665 5.28115 6.94746 4.78105 7.44755C4.28095 7.94765 4 8.62593 4 9.33317V17.3332C4 18.0404 4.28095 18.7187 4.78105 19.2188C5.28115 19.7189 5.95942 19.9998 6.66667 19.9998H9.33333M12 25.3332H25.3333C26.0406 25.3332 26.7189 25.0522 27.219 24.5521C27.719 24.052 28 23.3737 28 22.6665V14.6665C28 13.9593 27.719 13.281 27.219 12.7809C26.7189 12.2808 26.0406 11.9998 25.3333 11.9998H12C11.2928 11.9998 10.6145 12.2808 10.1144 12.7809C9.61428 13.281 9.33333 13.9593 9.33333 14.6665V22.6665C9.33333 23.3737 9.61428 24.052 10.1144 24.5521C10.6145 25.0522 11.2928 25.3332 12 25.3332ZM21.3333 18.6665C21.3333 19.3737 21.0524 20.052 20.5523 20.5521C20.0522 21.0522 19.3739 21.3332 18.6667 21.3332C17.9594 21.3332 17.2811 21.0522 16.781 20.5521C16.281 20.052 16 19.3737 16 18.6665C16 17.9593 16.281 17.281 16.781 16.7809C17.2811 16.2808 17.9594 15.9998 18.6667 15.9998C19.3739 15.9998 20.0522 16.2808 20.5523 16.7809C21.0524 17.281 21.3333 17.9593 21.3333 18.6665Z" stroke="#1A1A1A" stroke-width="2.66667" stroke-linecap="round" stroke-linejoin="round"/>
</svg>
