<svg width="32" height="32" viewBox="0 0 32 32" fill="none" xmlns="http://www.w3.org/2000/svg">
<path d="M5.75738 8.42389C5.20023 8.98104 4.75826 9.64248 4.45673 10.3704C4.1552 11.0984 4 11.8786 4 12.6666C4 13.4545 4.1552 14.2347 4.45673 14.9627C4.75826 15.6906 5.20023 16.3521 5.75738 16.9092L16.0001 27.1519L26.2427 16.9092C27.3679 15.784 28.0001 14.2579 28.0001 12.6666C28.0001 11.0752 27.3679 9.54911 26.2427 8.42389C25.1175 7.29866 23.5914 6.66652 22.0001 6.66652C20.4087 6.66652 18.8826 7.29866 17.7574 8.42389L16.0001 10.1812L14.2427 8.42389C13.6856 7.86673 13.0241 7.42477 12.2962 7.12323C11.5682 6.8217 10.788 6.6665 10.0001 6.6665C9.21211 6.6665 8.43189 6.8217 7.70393 7.12323C6.97598 7.42477 6.31454 7.86673 5.75738 8.42389Z" stroke="white" stroke-width="2.66667" stroke-linecap="round" stroke-linejoin="round"/>
</svg>
