<svg width="32" height="32" viewBox="0 0 32 32" fill="none" xmlns="http://www.w3.org/2000/svg">
<path d="M11.9998 15.9998L14.6665 18.6665L19.9998 13.3331M10.4465 6.26247C11.4029 6.18613 12.3108 5.81007 13.0411 5.1878C13.8663 4.48416 14.9153 4.09766 15.9998 4.09766C17.0843 4.09766 18.1333 4.48416 18.9585 5.1878C19.6888 5.81007 20.5967 6.18613 21.5531 6.26247C22.6341 6.34847 23.6491 6.8169 24.4159 7.5837C25.1827 8.3505 25.6511 9.36547 25.7371 10.4465C25.8135 11.4029 26.1895 12.3108 26.8118 13.0411C27.5154 13.8663 27.9019 14.9153 27.9019 15.9998C27.9019 17.0843 27.5154 18.1333 26.8118 18.9585C26.1895 19.6888 25.8135 20.5967 25.7371 21.5531C25.6511 22.6341 25.1827 23.6491 24.4159 24.4159C23.6491 25.1827 22.6341 25.6511 21.5531 25.7371C20.5967 25.8135 19.6888 26.1895 18.9585 26.8118C18.1333 27.5154 17.0843 27.9019 15.9998 27.9019C14.9153 27.9019 13.8663 27.5154 13.0411 26.8118C12.3108 26.1895 11.4029 25.8135 10.4465 25.7371C9.36547 25.6511 8.3505 25.1827 7.5837 24.4159C6.8169 23.6491 6.34847 22.6341 6.26247 21.5531C6.18613 20.5967 5.81007 19.6888 5.1878 18.9585C4.48416 18.1333 4.09766 17.0843 4.09766 15.9998C4.09766 14.9153 4.48416 13.8663 5.1878 13.0411C5.81007 12.3108 6.18613 11.4029 6.26247 10.4465C6.34847 9.36547 6.8169 8.3505 7.5837 7.5837C8.3505 6.8169 9.36547 6.34847 10.4465 6.26247Z" stroke="white" stroke-width="2.66667" stroke-linecap="round" stroke-linejoin="round"/>
</svg>
