<svg width="32" height="32" viewBox="0 0 32 32" fill="none" xmlns="http://www.w3.org/2000/svg">
<path d="M16.0002 20V22.6667M8.00016 28H24.0002C24.7074 28 25.3857 27.719 25.8858 27.219C26.3859 26.7189 26.6668 26.0406 26.6668 25.3333V17.3333C26.6668 16.6261 26.3859 15.9478 25.8858 15.4477C25.3857 14.9476 24.7074 14.6667 24.0002 14.6667H8.00016C7.29292 14.6667 6.61464 14.9476 6.11454 15.4477C5.61445 15.9478 5.3335 16.6261 5.3335 17.3333V25.3333C5.3335 26.0406 5.61445 26.7189 6.11454 27.219C6.61464 27.719 7.29292 28 8.00016 28ZM21.3335 14.6667V9.33333C21.3335 7.91885 20.7716 6.56229 19.7714 5.5621C18.7712 4.5619 17.4147 4 16.0002 4C14.5857 4 13.2291 4.5619 12.2289 5.5621C11.2287 6.56229 10.6668 7.91885 10.6668 9.33333V14.6667H21.3335Z" stroke="white" stroke-width="2.66667" stroke-linecap="round" stroke-linejoin="round"/>
</svg>
